ply
format ascii 1.0
comment VCGLIB generated
element vertex 96
property float x
property float y
property float z
property float nx
property float ny
property float nz
property uchar red
property uchar green
property uchar blue
property uchar alpha
element face 192
property list uchar int vertex_indices
end_header
0 6.4249 -400.9063 -0.1305251 2.974335 -4 255 0 0 255 
-18.9958 2.5008 -400.9063 -0.8958929 -2.839203 -4 255 0 0 255 
-36.697 9.8329 -400.9063 -1.600209 -2.510585 -4 255 0 0 255 
-17.3329 8.7068 -400.9063 0.6437359 2.906769 -2 255 0 0 255 
-33.4846 15.3971 -400.9063 1.374133 2.64111 -3 255 0 0 255 
-51.8974 21.4966 -400.9063 -1.402115 -1.402115 -3 255 0 0 255 
-47.3543 26.0397 -400.9063 2.804228 2.804231 -3 255 0 0 255 
-63.5611 36.697 -400.9063 -2.510585 -1.600207 -3 255 0 0 255 
-57.997 39.9095 -400.9063 2.641112 1.374128 -3 255 0 0 255 
-70.8932 54.3983 -400.9063 -2.839205 -0.8958898 -3 255 0 0 255 
-64.6872 56.0611 -400.9063 2.90677 0.643733 -3 255 0 0 255 
-73.394 73.394 -400.9063 -2.974335 -0.130525 -3 255 0 0 255 
-66.9691 73.394 -400.9063 2.974335 -0.130525 -3 255 0 0 255 
-70.8932 92.3898 -400.9063 -2.906769 0.6437317 -4 255 0 0 255 
-64.6872 90.7269 -400.9063 2.839206 -0.8958865 -2 255 0 0 255 
-57.997 106.8786 -400.9063 2.510586 -1.600206 -3 255 0 0 255 
-63.5611 110.091 -400.9063 -2.641111 1.374131 -3 255 0 0 255 
-47.3543 120.7484 -400.9063 1.402114 -1.402116 -3 255 0 0 255 
-51.8974 125.2914 -400.9063 -2.804229 2.80423 -3 255 0 0 255 
-33.4846 131.391 -400.9063 1.600205 -2.510587 -3 255 0 0 255 
-36.697 136.9551 -400.9063 -1.374132 2.641111 -3 255 0 0 255 
-17.3329 138.0812 -400.9063 0.8958924 -2.839206 -3 255 0 0 255 
-18.9958 144.2872 -400.9063 -0.6437429 2.906768 -4 255 0 0 255 
0 140.3632 -400.9063 0.1305306 -2.974333 -3 255 0 0 255 
18.9958 144.2872 -400.9063 0.8958987 2.839202 -4 255 0 0 255 
0 146.7881 -400.9063 0.130529 2.974333 -1 255 0 0 255 
17.3329 138.0812 -400.9063 -0.6437421 -2.906769 -3 255 0 0 255 
36.697 136.9551 -400.9063 1.600209 2.510585 -3 255 0 0 255 
33.4846 131.391 -400.9063 -1.374124 -2.641114 -3 255 0 0 255 
51.8974 125.2914 -400.9063 1.402115 1.402115 -3 255 0 0 255 
47.3543 120.7484 -400.9063 -2.804229 -2.804231 -3 255 0 0 255 
63.5611 110.091 -400.9063 2.510584 1.600209 -3 255 0 0 255 
57.997 106.8786 -400.9063 -2.641114 -1.374124 -3 255 0 0 255 
70.8932 92.3898 -400.9063 2.839203 0.8958927 -4 255 0 0 255 
64.6872 90.7269 -400.9063 -2.906771 -0.6437308 -2 255 0 0 255 
66.9691 73.394 -400.9063 -2.974335 0.1305251 -3 255 0 0 255 
73.394 73.394 -400.9063 2.974335 0.1305228 -3 255 0 0 255 
64.6872 56.0611 -400.9063 -2.839205 0.8958908 -3 255 0 0 255 
70.8932 54.3983 -400.9063 2.90677 -0.6437312 -3 255 0 0 255 
57.997 39.9095 -400.9063 -2.510585 1.600208 -3 255 0 0 255 
63.5611 36.697 -400.9063 2.641112 -1.374128 -3 255 0 0 255 
47.3543 26.0397 -400.9063 -1.402114 1.402116 -3 255 0 0 255 
51.8974 21.4966 -400.9063 2.80423 -2.80423 -3 255 0 0 255 
33.4846 15.3971 -400.9063 -1.600209 2.510585 -3 255 0 0 255 
36.697 9.8329 -400.9063 1.374131 -2.641111 -5 255 0 0 255 
17.3329 8.7068 -400.9063 -0.8958964 2.839202 -2 255 0 0 255 
18.9958 2.5008 -400.9063 0.6437323 -2.906769 -2 255 0 0 255 
0 0 -400.9063 -0.1305239 -2.974335 -1 255 0 0 255 
-70.8932 54.3983 400.9062 -2.90677 -0.6437312 3 255 0 0 255 
-73.394 73.394 400.9062 -2.974335 0.1305228 3 255 0 0 255 
-70.8932 92.3898 400.9062 -2.839203 0.8958927 4 255 0 0 255 
-63.5611 110.091 400.9062 -2.510584 1.600209 3 255 0 0 255 
-51.8974 125.2914 400.9062 -1.402115 1.402115 3 255 0 0 255 
-36.697 136.9551 400.9062 -1.600209 2.510585 3 255 0 0 255 
-18.9958 144.2872 400.9062 -0.8958987 2.839202 98.01321 255 0 0 255 
0 146.7881 400.9062 -0.130529 2.974333 95.01321 255 0 0 255 
18.9958 144.2872 400.9062 0.6437429 2.906768 98.01321 255 0 0 255 
36.697 136.9551 400.9062 1.374132 2.641111 3 255 0 0 255 
51.8974 125.2914 400.9062 2.804229 2.80423 3 255 0 0 255 
63.5611 110.091 400.9062 2.641111 1.374131 3 255 0 0 255 
70.8932 92.3898 400.9062 2.906769 0.6437317 4 255 0 0 255 
73.394 73.394 400.9062 2.974335 -0.130525 3 255 0 0 255 
70.8932 54.3983 400.9062 2.839205 -0.8958898 3 255 0 0 255 
63.5611 36.697 400.9062 2.510585 -1.600207 3 255 0 0 255 
51.8974 21.4966 400.9062 1.402115 -1.402115 3 255 0 0 255 
36.697 9.8329 400.9062 1.600209 -2.510585 5 255 0 0 255 
18.9958 2.5008 400.9062 0.8958929 -2.839203 2 255 0 0 255 
0 0 400.9062 0.1305239 -2.974335 1 255 0 0 255 
-18.9958 2.5008 400.9062 -0.6437322 -2.906769 211.7404 255 0 0 255 
-36.697 9.8329 400.9062 -1.374131 -2.641111 211.7404 255 0 0 255 
-51.8974 21.4966 400.9062 -2.80423 -2.80423 3 255 0 0 255 
-63.5611 36.697 400.9062 -2.641112 -1.374128 3 255 0 0 255 
-64.6872 56.0611 400.9062 2.839205 0.8958908 3 255 0 0 255 
-57.997 39.9095 400.9062 2.510585 1.600208 3 255 0 0 255 
-47.3543 26.0397 400.9062 1.402114 1.402116 3 255 0 0 255 
-17.3329 8.7068 400.9062 0.8958964 2.839202 2 255 0 0 255 
0 6.4249 400.9062 0.1305251 2.974335 211.7404 255 0 0 255 
17.3329 8.7068 400.9062 -0.6437359 2.906769 2 255 0 0 255 
33.4846 15.3971 400.9062 -1.374133 2.64111 3 255 0 0 255 
47.3543 26.0397 400.9062 -2.804228 2.804231 3 255 0 0 255 
57.997 39.9095 400.9062 -2.641112 1.374128 3 255 0 0 255 
64.6872 56.0611 400.9062 -2.90677 0.643733 3 255 0 0 255 
66.9691 73.394 400.9062 -2.974335 -0.130525 3 255 0 0 255 
64.6872 90.7269 400.9062 -2.839206 -0.8958865 2 255 0 0 255 
57.997 106.8786 400.9062 -2.510586 -1.600206 3 255 0 0 255 
47.3543 120.7484 400.9062 -1.402114 -1.402116 3 255 0 0 255 
33.4846 131.391 400.9062 -1.600205 -2.510587 3 255 0 0 255 
17.3329 138.0812 400.9062 -0.8958923 -2.839206 3 255 0 0 255 
0 140.3632 400.9062 -0.1305306 -2.974333 3 255 0 0 255 
-17.3329 138.0812 400.9062 0.6437421 -2.906769 3 255 0 0 255 
-33.4846 131.391 400.9062 1.374124 -2.641114 3 255 0 0 255 
-47.3543 120.7484 400.9062 2.804229 -2.804231 3 255 0 0 255 
-57.997 106.8786 400.9062 2.641114 -1.374124 3 255 0 0 255 
-64.6872 90.7269 400.9062 2.906771 -0.6437308 2 255 0 0 255 
-66.9691 73.394 400.9062 2.974335 0.1305251 3 255 0 0 255 
-33.4846 15.3971 400.9062 1.600209 2.510585 3 255 0 0 255 
3 0 1 2 
3 0 2 3 
3 4 3 2 
3 4 2 5 
3 6 4 5 
3 6 5 7 
3 8 6 7 
3 8 7 9 
3 10 8 9 
3 10 9 11 
3 12 10 11 
3 12 11 13 
3 14 12 13 
3 14 13 15 
3 15 13 16 
3 15 16 17 
3 17 16 18 
3 17 18 19 
3 19 18 20 
3 19 20 21 
3 21 20 22 
3 21 22 23 
3 24 23 22 
3 24 22 25 
3 26 23 24 
3 26 24 27 
3 28 26 27 
3 28 27 29 
3 30 28 29 
3 30 29 31 
3 32 30 31 
3 32 31 33 
3 34 32 33 
3 34 33 35 
3 35 33 36 
3 35 36 37 
3 37 36 38 
3 37 38 39 
3 39 38 40 
3 39 40 41 
3 41 40 42 
3 41 42 43 
3 43 42 44 
3 43 44 45 
3 0 45 44 
3 0 44 1 
3 1 44 46 
3 1 46 47 
3 48 49 11 
3 48 11 9 
3 49 50 13 
3 49 13 11 
3 50 51 16 
3 50 16 13 
3 51 52 18 
3 51 18 16 
3 18 52 53 
3 18 53 20 
3 20 53 54 
3 20 54 22 
3 22 54 55 
3 22 55 25 
3 25 55 56 
3 25 56 24 
3 24 56 57 
3 24 57 27 
3 27 57 58 
3 27 58 29 
3 58 59 31 
3 58 31 29 
3 59 60 33 
3 59 33 31 
3 60 61 36 
3 60 36 33 
3 61 62 38 
3 61 38 36 
3 62 63 40 
3 62 40 38 
3 63 64 42 
3 63 42 40 
3 65 44 42 
3 65 42 64 
3 66 46 44 
3 66 44 65 
3 67 47 46 
3 67 46 66 
3 68 1 47 
3 68 47 67 
3 69 2 1 
3 69 1 68 
3 70 5 2 
3 70 2 69 
3 70 71 7 
3 70 7 5 
3 71 48 9 
3 71 9 7 
3 72 73 8 
3 72 8 10 
3 73 74 6 
3 73 6 8 
3 3 75 76 
3 3 76 0 
3 0 76 77 
3 0 77 45 
3 45 77 78 
3 45 78 43 
3 43 78 79 
3 43 79 41 
3 79 80 39 
3 79 39 41 
3 80 81 37 
3 80 37 39 
3 81 82 35 
3 81 35 37 
3 82 83 34 
3 82 34 35 
3 83 84 32 
3 83 32 34 
3 84 85 30 
3 84 30 32 
3 86 28 30 
3 86 30 85 
3 87 26 28 
3 87 28 86 
3 88 23 26 
3 88 26 87 
3 89 21 23 
3 89 23 88 
3 90 19 21 
3 90 21 89 
3 91 17 19 
3 91 19 90 
3 91 92 15 
3 91 15 17 
3 92 93 14 
3 92 14 15 
3 93 94 12 
3 93 12 14 
3 94 72 10 
3 94 10 12 
3 68 67 66 
3 68 66 65 
3 76 68 65 
3 76 65 77 
3 78 77 65 
3 78 65 64 
3 79 78 64 
3 79 64 63 
3 80 79 63 
3 80 63 62 
3 81 80 62 
3 81 62 61 
3 82 81 61 
3 82 61 60 
3 83 82 60 
3 83 60 84 
3 84 60 59 
3 84 59 85 
3 85 59 58 
3 85 58 86 
3 86 58 57 
3 86 57 87 
3 87 57 56 
3 87 56 88 
3 88 56 54 
3 88 54 89 
3 89 54 53 
3 89 53 90 
3 90 53 52 
3 90 52 91 
3 91 52 51 
3 91 51 92 
3 92 51 50 
3 92 50 93 
3 94 93 50 
3 94 50 49 
3 72 94 49 
3 72 49 48 
3 73 72 48 
3 73 48 71 
3 74 73 71 
3 74 71 70 
3 95 74 70 
3 95 70 69 
3 75 95 69 
3 75 69 76 
3 76 69 68 
3 54 56 55 
3 6 74 95 
3 6 95 4 
3 4 95 75 
3 4 75 3 
