ply
format ascii 1.0
comment VCGLIB generated
element vertex 8
property float x
property float y
property float z
property float nx
property float ny
property float nz
property uchar red
property uchar green
property uchar blue
property uchar alpha
property float texture_u
property float texture_v
element face 12
property list uchar int vertex_indices
end_header
-25 1 25 -0.5773501 0.5773506 0.5773501 10 200 0 255 1.000000 0.000000
-25 0 -25 -0.57735 -0.5773504 -0.5773504 10 200 0 255 0.000000 0.000000
-25 0 25 -0.5773503 -0.5773503 0.5773503 10 200 0 255 1.000000 0.000000
-25 1 -25 -0.5773504 0.5773504 -0.57735 10 200 0 255 0.000000 0.000000
25 0 25 0.5773504 -0.5773504 0.57735 10 200 0 255 1.000000 1.000000
25 0 -25 0.5773501 -0.5773506 -0.5773501 10 200 0 255 0.000000 1.000000
25 1 25 0.57735 0.5773504 0.5773504 10 200 0 255 1.000000 1.000000
25 1 -25 0.5773503 0.5773503 -0.5773503 10 200 0 255 0.000000 1.000000
3 0 1 2 
3 3 1 0 
3 4 5 6 
3 6 5 7 
3 4 0 2 
3 6 0 4 
3 1 3 5 
3 5 3 7 
3 1 4 2 
3 5 4 1 
3 0 6 3 
3 3 6 7 
