ply
format ascii 1.0
comment VCGLIB generated
element vertex 96
property float x
property float y
property float z
property float nx
property float ny
property float nz
property uchar red
property uchar green
property uchar blue
property uchar alpha
element face 192
property list uchar int vertex_indices
end_header
6.424936 -1.752417e-05 400.9063 0.5964953 -0.0261765 0.8021896 255 0 0 255 
2.500836 -18.99582 400.9063 -0.5693948 -0.179669 0.8021899 255 0 0 255 
9.832933 -36.69701 400.9063 -0.5034913 -0.3209178 0.8021896 255 0 0 255 
8.706834 -17.33292 400.9063 0.8104525 0.1794836 0.557631 255 0 0 255 
15.39714 -33.48462 400.9063 0.624886 0.3251195 0.7097992 255 0 0 255 
21.49664 -51.89742 400.9063 -0.3899 -0.3899 0.8342398 255 0 0 255 
26.03974 -47.35432 400.9063 0.5639291 0.5639285 0.6032982 255 0 0 255 
36.69704 -63.56112 400.9063 -0.3786085 -0.5940039 0.7097993 255 0 0 255 
39.90954 -57.99702 400.9063 0.3251184 0.6248865 0.7097993 255 0 0 255 
54.39834 -70.89321 400.9063 -0.2119672 -0.6717551 0.7097992 255 0 0 255 
56.06114 -64.68719 400.9063 0.1523071 0.6877409 0.7097993 255 0 0 255 
73.39401 -73.39399 400.9063 -0.03088211 -0.7037268 0.7097991 255 0 0 255 
73.39401 -66.9691 400.9063 -0.03088211 0.7037268 0.7097992 255 0 0 255 
92.38982 -70.89321 400.9063 0.1290988 -0.582945 0.8021899 255 0 0 255 
90.72693 -64.68719 400.9063 -0.249787 0.7916147 0.5576312 255 0 0 255 
106.8786 -57.99702 400.9063 -0.3786083 0.594004 0.7097992 255 0 0 255 
110.091 -63.56112 400.9063 0.3251191 -0.6248862 0.7097992 255 0 0 255 
120.7484 -47.35432 400.9063 -0.3899003 0.3898997 0.8342398 255 0 0 255 
125.2914 -51.89742 400.9063 0.5639288 -0.5639287 0.6032982 255 0 0 255 
131.391 -33.48462 400.9063 -0.5940042 0.378608 0.7097992 255 0 0 255 
136.9551 -36.69701 400.9063 0.6248863 -0.3251192 0.7097992 255 0 0 255 
138.0812 -17.33292 400.9063 -0.671755 0.2119678 0.7097991 255 0 0 255 
144.2872 -18.99582 400.9063 0.582945 -0.129101 0.8021896 255 0 0 255 
140.3632 -1.752417e-05 400.9063 -0.7037264 0.03088348 0.7097996 255 0 0 255 
144.2872 18.99578 400.9063 0.5693947 0.1796702 0.8021898 255 0 0 255 
146.7881 -1.752417e-05 400.9063 0.9470432 0.0415611 0.3184052 255 0 0 255 
138.0812 17.33288 400.9063 -0.6877406 -0.1523092 0.7097992 255 0 0 255 
136.9551 36.69697 400.9063 0.5940037 0.378609 0.7097992 255 0 0 255 
131.391 33.48458 400.9063 -0.6248868 -0.3251174 0.7097993 255 0 0 255 
125.2914 51.89738 400.9063 0.3899001 0.3899 0.8342398 255 0 0 255 
120.7484 47.35427 400.9063 -0.563929 -0.5639285 0.6032981 255 0 0 255 
110.091 63.56108 400.9063 0.378609 0.5940036 0.7097993 255 0 0 255 
106.8786 57.99697 400.9063 -0.3251174 -0.6248868 0.7097993 255 0 0 255 
92.38982 70.89318 400.9063 0.179669 0.5693948 0.8021899 255 0 0 255 
90.72693 64.68716 400.9063 -0.1794821 -0.8104528 0.5576311 255 0 0 255 
73.39401 66.96907 400.9063 0.03088226 -0.7037268 0.7097991 255 0 0 255 
73.39401 73.39396 400.9063 0.03088172 0.7037268 0.7097992 255 0 0 255 
56.06114 64.68716 400.9063 0.2119675 -0.671755 0.7097992 255 0 0 255 
54.39834 70.89318 400.9063 -0.1523066 0.6877409 0.7097993 255 0 0 255 
39.90954 57.99697 400.9063 0.3786089 -0.5940037 0.7097992 255 0 0 255 
36.69704 63.56108 400.9063 -0.3251183 0.6248865 0.7097993 255 0 0 255 
26.03974 47.35427 400.9063 0.3899003 -0.3898997 0.8342398 255 0 0 255 
21.49664 51.89738 400.9063 -0.5639288 0.5639288 0.6032982 255 0 0 255 
15.39714 33.48458 400.9063 0.5940037 -0.378609 0.7097992 255 0 0 255 
9.832933 36.69697 400.9063 -0.4538574 0.2361353 0.8592169 255 0 0 255 
8.706834 17.33288 400.9063 0.7916139 -0.2497899 0.5576312 255 0 0 255 
2.500836 18.99578 400.9063 -0.8104525 0.1794826 0.5576314 255 0 0 255 
3.504834e-05 -1.752417e-05 400.9063 -0.9470433 -0.04155948 0.3184052 255 0 0 255 
54.39826 -70.89318 -400.9062 -0.1523067 -0.6877409 -0.7097993 255 0 0 255 
73.39395 -73.39396 -400.9062 0.0308816 -0.7037268 -0.7097992 255 0 0 255 
92.38978 -70.89318 -400.9062 0.179669 -0.5693948 -0.8021899 255 0 0 255 
110.091 -63.56108 -400.9062 0.378609 -0.5940036 -0.7097993 255 0 0 255 
125.2914 -51.89738 -400.9062 0.3899 -0.3899 -0.8342398 255 0 0 255 
136.9551 -36.69697 -400.9062 0.5940036 -0.378609 -0.7097992 255 0 0 255 
144.2872 -18.99578 -400.9062 0.02895411 -0.009136332 -0.999539 255 0 0 255 
146.7881 1.752417e-05 -400.9062 0.03128897 -0.001373081 -0.9995095 255 0 0 255 
144.2872 18.99582 -400.9062 0.02964315 0.006564936 -0.999539 255 0 0 255 
136.9551 36.69701 -400.9062 0.624886 0.3251193 -0.7097992 255 0 0 255 
125.2914 51.89742 -400.9062 0.5639288 0.5639287 -0.6032982 255 0 0 255 
110.091 63.56112 -400.9062 0.325119 0.6248862 -0.7097992 255 0 0 255 
92.38978 70.89321 -400.9062 0.1290987 0.582945 -0.8021899 255 0 0 255 
73.39395 73.39399 -400.9062 -0.03088224 0.7037268 -0.7097991 255 0 0 255 
54.39826 70.89321 -400.9062 -0.2119673 0.6717551 -0.7097992 255 0 0 255 
36.69696 63.56112 -400.9062 -0.3786086 0.5940039 -0.7097993 255 0 0 255 
21.49656 51.89742 -400.9062 -0.3899001 0.3899 -0.8342398 255 0 0 255 
9.832865 36.69701 -400.9062 -0.4314274 0.2749853 -0.8592168 255 0 0 255 
2.500764 18.99582 -400.9062 -0.7916141 0.2497889 -0.5576313 255 0 0 255 
-3.504834e-05 1.752417e-05 -400.9062 -0.9470433 0.04155948 -0.3184051 255 0 0 255 
2.500764 -18.99578 -400.9062 -0.01372671 -0.003039851 -0.9999012 255 0 0 255 
9.832865 -36.69697 -400.9062 -0.0124722 -0.006489011 -0.9999012 255 0 0 255 
21.49656 -51.89738 -400.9062 -0.5639288 -0.5639288 -0.6032982 255 0 0 255 
36.69696 -63.56108 -400.9062 -0.3251184 -0.6248865 -0.7097993 255 0 0 255 
56.06106 -64.68716 -400.9062 0.2119675 0.671755 -0.7097992 255 0 0 255 
39.90946 -57.99697 -400.9062 0.3786088 0.5940037 -0.7097992 255 0 0 255 
26.03966 -47.35427 -400.9062 0.3899003 0.3898997 -0.8342398 255 0 0 255 
8.706765 -17.33288 -400.9062 0.7916138 0.2497899 -0.5576314 255 0 0 255 
6.424863 1.752417e-05 -400.9062 0.01404561 0.0006164219 -0.9999012 255 0 0 255 
8.706765 17.33292 -400.9062 0.8104524 -0.1794836 -0.5576313 255 0 0 255 
15.39706 33.48462 -400.9062 0.6248859 -0.3251195 -0.7097992 255 0 0 255 
26.03966 47.35432 -400.9062 0.5639291 -0.5639285 -0.6032982 255 0 0 255 
39.90946 57.99702 -400.9062 0.3251183 -0.6248865 -0.7097993 255 0 0 255 
56.06106 64.68719 -400.9062 0.152307 -0.6877409 -0.7097993 255 0 0 255 
73.39395 66.9691 -400.9062 -0.03088224 -0.7037268 -0.7097992 255 0 0 255 
90.72687 64.68719 -400.9062 -0.2497871 -0.7916147 -0.5576312 255 0 0 255 
106.8786 57.99702 -400.9062 -0.3786085 -0.594004 -0.7097992 255 0 0 255 
120.7484 47.35432 -400.9062 -0.3899003 -0.3898997 -0.8342398 255 0 0 255 
131.391 33.48462 -400.9062 -0.5940044 -0.378608 -0.7097992 255 0 0 255 
138.0812 17.33292 -400.9062 -0.6717553 -0.2119677 -0.7097989 255 0 0 255 
140.3632 1.752417e-05 -400.9062 -0.7037266 -0.03088348 -0.7097993 255 0 0 255 
138.0812 -17.33288 -400.9062 -0.6877407 0.1523092 -0.7097991 255 0 0 255 
131.391 -33.48458 -400.9062 -0.6248869 0.3251174 -0.7097993 255 0 0 255 
120.7484 -47.35427 -400.9062 -0.563929 0.5639285 -0.6032981 255 0 0 255 
106.8786 -57.99697 -400.9062 -0.3251175 0.6248868 -0.7097993 255 0 0 255 
90.72687 -64.68716 -400.9062 -0.1794823 0.8104528 -0.5576311 255 0 0 255 
73.39395 -66.96907 -400.9062 0.03088214 0.7037268 -0.7097991 255 0 0 255 
15.39706 -33.48458 -400.9062 0.5940036 0.378609 -0.7097992 255 0 0 255 
3 0 1 2 
3 0 2 3 
3 4 3 2 
3 4 2 5 
3 6 4 5 
3 6 5 7 
3 8 6 7 
3 8 7 9 
3 10 8 9 
3 10 9 11 
3 12 10 11 
3 12 11 13 
3 14 12 13 
3 14 13 15 
3 15 13 16 
3 15 16 17 
3 17 16 18 
3 17 18 19 
3 19 18 20 
3 19 20 21 
3 21 20 22 
3 21 22 23 
3 24 23 22 
3 24 22 25 
3 26 23 24 
3 26 24 27 
3 28 26 27 
3 28 27 29 
3 30 28 29 
3 30 29 31 
3 32 30 31 
3 32 31 33 
3 34 32 33 
3 34 33 35 
3 35 33 36 
3 35 36 37 
3 37 36 38 
3 37 38 39 
3 39 38 40 
3 39 40 41 
3 41 40 42 
3 41 42 43 
3 43 42 44 
3 43 44 45 
3 0 45 44 
3 0 44 1 
3 1 44 46 
3 1 46 47 
3 48 49 11 
3 48 11 9 
3 49 50 13 
3 49 13 11 
3 50 51 16 
3 50 16 13 
3 51 52 18 
3 51 18 16 
3 18 52 53 
3 18 53 20 
3 20 53 54 
3 20 54 22 
3 22 54 55 
3 22 55 25 
3 25 55 56 
3 25 56 24 
3 24 56 57 
3 24 57 27 
3 27 57 58 
3 27 58 29 
3 58 59 31 
3 58 31 29 
3 59 60 33 
3 59 33 31 
3 60 61 36 
3 60 36 33 
3 61 62 38 
3 61 38 36 
3 62 63 40 
3 62 40 38 
3 63 64 42 
3 63 42 40 
3 65 44 42 
3 65 42 64 
3 66 46 44 
3 66 44 65 
3 67 47 46 
3 67 46 66 
3 68 1 47 
3 68 47 67 
3 69 2 1 
3 69 1 68 
3 70 5 2 
3 70 2 69 
3 70 71 7 
3 70 7 5 
3 71 48 9 
3 71 9 7 
3 72 73 8 
3 72 8 10 
3 73 74 6 
3 73 6 8 
3 3 75 76 
3 3 76 0 
3 0 76 77 
3 0 77 45 
3 45 77 78 
3 45 78 43 
3 43 78 79 
3 43 79 41 
3 79 80 39 
3 79 39 41 
3 80 81 37 
3 80 37 39 
3 81 82 35 
3 81 35 37 
3 82 83 34 
3 82 34 35 
3 83 84 32 
3 83 32 34 
3 84 85 30 
3 84 30 32 
3 86 28 30 
3 86 30 85 
3 87 26 28 
3 87 28 86 
3 88 23 26 
3 88 26 87 
3 89 21 23 
3 89 23 88 
3 90 19 21 
3 90 21 89 
3 91 17 19 
3 91 19 90 
3 91 92 15 
3 91 15 17 
3 92 93 14 
3 92 14 15 
3 93 94 12 
3 93 12 14 
3 94 72 10 
3 94 10 12 
3 68 67 66 
3 68 66 65 
3 76 68 65 
3 76 65 77 
3 78 77 65 
3 78 65 64 
3 79 78 64 
3 79 64 63 
3 80 79 63 
3 80 63 62 
3 81 80 62 
3 81 62 61 
3 82 81 61 
3 82 61 60 
3 83 82 60 
3 83 60 84 
3 84 60 59 
3 84 59 85 
3 85 59 58 
3 85 58 86 
3 86 58 57 
3 86 57 87 
3 87 57 56 
3 87 56 88 
3 88 56 54 
3 88 54 89 
3 89 54 53 
3 89 53 90 
3 90 53 52 
3 90 52 91 
3 91 52 51 
3 91 51 92 
3 92 51 50 
3 92 50 93 
3 94 93 50 
3 94 50 49 
3 72 94 49 
3 72 49 48 
3 73 72 48 
3 73 48 71 
3 74 73 71 
3 74 71 70 
3 95 74 70 
3 95 70 69 
3 75 95 69 
3 75 69 76 
3 76 69 68 
3 54 56 55 
3 6 74 95 
3 6 95 4 
3 4 95 75 
3 4 75 3 
