ply
format ascii 1.0
comment VCGLIB generated
element vertex 96
property float x
property float y
property float z
property float nx
property float ny
property float nz
property uchar red
property uchar green
property uchar blue
property uchar alpha
element face 192
property list uchar int vertex_indices
end_header
6.424935 -400.9063 -3.504834e-05 0.5964953 -0.8021896 -0.02617653 255 0 0 255 
2.500835 -400.9063 -18.99583 -0.5693947 -0.8021899 -0.179669 255 0 0 255 
9.832932 -400.9063 -36.69703 -0.5034912 -0.8021896 -0.3209178 255 0 0 255 
8.706833 -400.9063 -17.33294 0.8104525 -0.557631 0.1794836 255 0 0 255 
15.39714 -400.9063 -33.48463 0.6248859 -0.7097992 0.3251194 255 0 0 255 
21.49664 -400.9063 -51.89743 -0.3898999 -0.8342398 -0.3899 255 0 0 255 
26.03974 -400.9063 -47.35434 0.563929 -0.6032982 0.5639285 255 0 0 255 
36.69704 -400.9063 -63.56113 -0.3786085 -0.7097993 -0.5940039 255 0 0 255 
39.90953 -400.9063 -57.99704 0.3251184 -0.7097993 0.6248864 255 0 0 255 
54.39833 -400.9063 -70.89323 -0.2119672 -0.7097992 -0.6717552 255 0 0 255 
56.06113 -400.9063 -64.68721 0.1523071 -0.7097993 0.6877408 255 0 0 255 
73.394 -400.9063 -73.394 -0.03088211 -0.7097991 -0.7037269 255 0 0 255 
73.394 -400.9063 -66.96912 -0.03088211 -0.7097992 0.7037267 255 0 0 255 
92.38982 -400.9063 -70.89323 0.1290988 -0.8021899 -0.5829451 255 0 0 255 
90.72692 -400.9063 -64.68721 -0.249787 -0.5576313 0.7916147 255 0 0 255 
106.8786 -400.9063 -57.99704 -0.3786083 -0.7097992 0.5940039 255 0 0 255 
110.091 -400.9063 -63.56113 0.3251191 -0.7097992 -0.6248862 255 0 0 255 
120.7484 -400.9063 -47.35434 -0.3899002 -0.8342398 0.3898996 255 0 0 255 
125.2914 -400.9063 -51.89743 0.5639288 -0.6032982 -0.5639287 255 0 0 255 
131.391 -400.9063 -33.48463 -0.5940042 -0.7097992 0.378608 255 0 0 255 
136.9551 -400.9063 -36.69703 0.6248862 -0.7097992 -0.3251192 255 0 0 255 
138.0812 -400.9063 -17.33294 -0.671755 -0.7097991 0.2119678 255 0 0 255 
144.2872 -400.9063 -18.99583 0.5829449 -0.8021896 -0.129101 255 0 0 255 
140.3632 -400.9063 -3.504834e-05 -0.7037263 -0.7097996 0.03088345 255 0 0 255 
144.2872 -400.9063 18.99576 0.5693946 -0.8021898 0.1796702 255 0 0 255 
146.7881 -400.9063 -3.504834e-05 0.9470432 -0.3184052 0.04156109 255 0 0 255 
138.0812 -400.9063 17.33286 -0.6877405 -0.7097992 -0.1523092 255 0 0 255 
136.9551 -400.9063 36.69695 0.5940037 -0.7097992 0.3786089 255 0 0 255 
131.391 -400.9063 33.48456 -0.6248868 -0.7097993 -0.3251174 255 0 0 255 
125.2914 -400.9063 51.89736 0.3899001 -0.8342398 0.3898999 255 0 0 255 
120.7484 -400.9063 47.35426 -0.563929 -0.6032981 -0.5639285 255 0 0 255 
110.091 -400.9063 63.56106 0.378609 -0.7097993 0.5940035 255 0 0 255 
106.8786 -400.9063 57.99696 -0.3251173 -0.7097993 -0.6248869 255 0 0 255 
92.38982 -400.9063 70.89317 0.179669 -0.8021899 0.5693947 255 0 0 255 
90.72692 -400.9063 64.68715 -0.1794821 -0.557631 -0.8104528 255 0 0 255 
73.394 -400.9063 66.96906 0.03088226 -0.7097991 -0.7037269 255 0 0 255 
73.394 -400.9063 73.39394 0.03088172 -0.7097992 0.7037267 255 0 0 255 
56.06113 -400.9063 64.68715 0.2119675 -0.7097992 -0.6717551 255 0 0 255 
54.39833 -400.9063 70.89317 -0.1523066 -0.7097993 0.6877409 255 0 0 255 
39.90953 -400.9063 57.99696 0.3786089 -0.7097992 -0.5940038 255 0 0 255 
36.69704 -400.9063 63.56106 -0.3251182 -0.7097993 0.6248864 255 0 0 255 
26.03974 -400.9063 47.35426 0.3899003 -0.8342398 -0.3898997 255 0 0 255 
21.49664 -400.9063 51.89736 -0.5639287 -0.6032982 0.5639288 255 0 0 255 
15.39714 -400.9063 33.48456 0.5940037 -0.7097992 -0.378609 255 0 0 255 
9.832932 -400.9063 36.69695 -0.4538573 -0.8592169 0.2361352 255 0 0 255 
8.706833 -400.9063 17.33286 0.7916138 -0.5576312 -0.2497899 255 0 0 255 
2.500835 -400.9063 18.99576 -0.8104525 -0.5576314 0.1794825 255 0 0 255 
3.504834e-05 -400.9063 -3.504834e-05 -0.9470432 -0.3184052 -0.0415595 255 0 0 255 
54.39826 400.9062 -70.89317 -0.1523067 0.7097993 -0.6877409 255 0 0 255 
73.39394 400.9062 -73.39394 0.0308816 0.7097992 -0.7037267 255 0 0 255 
92.38977 400.9062 -70.89317 0.1796689 0.8021899 -0.5693947 255 0 0 255 
110.091 400.9062 -63.56106 0.3786089 0.7097993 -0.5940035 255 0 0 255 
125.2914 400.9062 -51.89736 0.3898999 0.8342398 -0.3898999 255 0 0 255 
136.9551 400.9062 -36.69695 0.5940036 0.7097992 -0.378609 255 0 0 255 
144.2872 400.9062 -18.99576 0.02895411 0.999539 -0.009136288 255 0 0 255 
146.7881 400.9062 3.504833e-05 0.03128896 0.9995095 -0.001373037 255 0 0 255 
144.2872 400.9062 18.99583 0.02964314 0.999539 0.006564979 255 0 0 255 
136.9551 400.9062 36.69703 0.6248859 0.7097992 0.3251193 255 0 0 255 
125.2914 400.9062 51.89743 0.5639288 0.6032982 0.5639287 255 0 0 255 
110.091 400.9062 63.56113 0.3251189 0.7097992 0.6248862 255 0 0 255 
92.38977 400.9062 70.89323 0.1290987 0.8021899 0.5829451 255 0 0 255 
73.39394 400.9062 73.394 -0.03088224 0.7097991 0.7037269 255 0 0 255 
54.39826 400.9062 70.89323 -0.2119673 0.7097992 0.6717552 255 0 0 255 
36.69696 400.9062 63.56113 -0.3786086 0.7097993 0.5940039 255 0 0 255 
21.49656 400.9062 51.89743 -0.3899001 0.8342398 0.3899 255 0 0 255 
9.832864 400.9062 36.69703 -0.4314274 0.8592168 0.2749853 255 0 0 255 
2.500764 400.9062 18.99583 -0.7916141 0.5576313 0.2497889 255 0 0 255 
-3.504833e-05 400.9062 3.504833e-05 -0.9470432 0.3184051 0.0415595 255 0 0 255 
2.500764 400.9062 -18.99576 -0.01372671 0.9999012 -0.003039807 255 0 0 255 
9.832864 400.9062 -36.69695 -0.0124722 0.9999012 -0.006488967 255 0 0 255 
21.49656 400.9062 -51.89736 -0.5639287 0.6032982 -0.5639288 255 0 0 255 
36.69696 400.9062 -63.56106 -0.3251184 0.7097993 -0.6248864 255 0 0 255 
56.06106 400.9062 -64.68715 0.2119675 0.7097992 0.6717551 255 0 0 255 
39.90946 400.9062 -57.99696 0.3786087 0.7097992 0.5940038 255 0 0 255 
26.03966 400.9062 -47.35426 0.3899002 0.8342398 0.3898997 255 0 0 255 
8.706764 400.9062 -17.33286 0.7916138 0.5576314 0.2497899 255 0 0 255 
6.424863 400.9062 3.504833e-05 0.01404561 0.9999012 0.0006164656 255 0 0 255 
8.706764 400.9062 17.33294 0.8104523 0.5576313 -0.1794836 255 0 0 255 
15.39706 400.9062 33.48463 0.6248858 0.7097992 -0.3251194 255 0 0 255 
26.03966 400.9062 47.35434 0.563929 0.6032982 -0.5639285 255 0 0 255 
39.90946 400.9062 57.99704 0.3251182 0.7097993 -0.6248864 255 0 0 255 
56.06106 400.9062 64.68721 0.152307 0.7097993 -0.6877408 255 0 0 255 
73.39394 400.9062 66.96912 -0.03088224 0.7097992 -0.7037267 255 0 0 255 
90.72686 400.9062 64.68721 -0.2497871 0.5576313 -0.7916147 255 0 0 255 
106.8786 400.9062 57.99704 -0.3786084 0.7097992 -0.5940039 255 0 0 255 
120.7484 400.9062 47.35434 -0.3899003 0.8342398 -0.3898996 255 0 0 255 
131.391 400.9062 33.48463 -0.5940043 0.7097992 -0.378608 255 0 0 255 
138.0812 400.9062 17.33294 -0.6717553 0.7097989 -0.2119677 255 0 0 255 
140.3632 400.9062 3.504833e-05 -0.7037266 0.7097993 -0.03088345 255 0 0 255 
138.0812 400.9062 -17.33286 -0.6877407 0.7097991 0.1523092 255 0 0 255 
131.391 400.9062 -33.48456 -0.6248869 0.7097993 0.3251174 255 0 0 255 
120.7484 400.9062 -47.35426 -0.563929 0.6032981 0.5639285 255 0 0 255 
106.8786 400.9062 -57.99696 -0.3251175 0.7097993 0.6248869 255 0 0 255 
90.72686 400.9062 -64.68715 -0.1794822 0.557631 0.8104528 255 0 0 255 
73.39394 400.9062 -66.96906 0.03088214 0.7097991 0.7037269 255 0 0 255 
15.39706 400.9062 -33.48456 0.5940036 0.7097992 0.378609 255 0 0 255 
3 0 1 2 
3 0 2 3 
3 4 3 2 
3 4 2 5 
3 6 4 5 
3 6 5 7 
3 8 6 7 
3 8 7 9 
3 10 8 9 
3 10 9 11 
3 12 10 11 
3 12 11 13 
3 14 12 13 
3 14 13 15 
3 15 13 16 
3 15 16 17 
3 17 16 18 
3 17 18 19 
3 19 18 20 
3 19 20 21 
3 21 20 22 
3 21 22 23 
3 24 23 22 
3 24 22 25 
3 26 23 24 
3 26 24 27 
3 28 26 27 
3 28 27 29 
3 30 28 29 
3 30 29 31 
3 32 30 31 
3 32 31 33 
3 34 32 33 
3 34 33 35 
3 35 33 36 
3 35 36 37 
3 37 36 38 
3 37 38 39 
3 39 38 40 
3 39 40 41 
3 41 40 42 
3 41 42 43 
3 43 42 44 
3 43 44 45 
3 0 45 44 
3 0 44 1 
3 1 44 46 
3 1 46 47 
3 48 49 11 
3 48 11 9 
3 49 50 13 
3 49 13 11 
3 50 51 16 
3 50 16 13 
3 51 52 18 
3 51 18 16 
3 18 52 53 
3 18 53 20 
3 20 53 54 
3 20 54 22 
3 22 54 55 
3 22 55 25 
3 25 55 56 
3 25 56 24 
3 24 56 57 
3 24 57 27 
3 27 57 58 
3 27 58 29 
3 58 59 31 
3 58 31 29 
3 59 60 33 
3 59 33 31 
3 60 61 36 
3 60 36 33 
3 61 62 38 
3 61 38 36 
3 62 63 40 
3 62 40 38 
3 63 64 42 
3 63 42 40 
3 65 44 42 
3 65 42 64 
3 66 46 44 
3 66 44 65 
3 67 47 46 
3 67 46 66 
3 68 1 47 
3 68 47 67 
3 69 2 1 
3 69 1 68 
3 70 5 2 
3 70 2 69 
3 70 71 7 
3 70 7 5 
3 71 48 9 
3 71 9 7 
3 72 73 8 
3 72 8 10 
3 73 74 6 
3 73 6 8 
3 3 75 76 
3 3 76 0 
3 0 76 77 
3 0 77 45 
3 45 77 78 
3 45 78 43 
3 43 78 79 
3 43 79 41 
3 79 80 39 
3 79 39 41 
3 80 81 37 
3 80 37 39 
3 81 82 35 
3 81 35 37 
3 82 83 34 
3 82 34 35 
3 83 84 32 
3 83 32 34 
3 84 85 30 
3 84 30 32 
3 86 28 30 
3 86 30 85 
3 87 26 28 
3 87 28 86 
3 88 23 26 
3 88 26 87 
3 89 21 23 
3 89 23 88 
3 90 19 21 
3 90 21 89 
3 91 17 19 
3 91 19 90 
3 91 92 15 
3 91 15 17 
3 92 93 14 
3 92 14 15 
3 93 94 12 
3 93 12 14 
3 94 72 10 
3 94 10 12 
3 68 67 66 
3 68 66 65 
3 76 68 65 
3 76 65 77 
3 78 77 65 
3 78 65 64 
3 79 78 64 
3 79 64 63 
3 80 79 63 
3 80 63 62 
3 81 80 62 
3 81 62 61 
3 82 81 61 
3 82 61 60 
3 83 82 60 
3 83 60 84 
3 84 60 59 
3 84 59 85 
3 85 59 58 
3 85 58 86 
3 86 58 57 
3 86 57 87 
3 87 57 56 
3 87 56 88 
3 88 56 54 
3 88 54 89 
3 89 54 53 
3 89 53 90 
3 90 53 52 
3 90 52 91 
3 91 52 51 
3 91 51 92 
3 92 51 50 
3 92 50 93 
3 94 93 50 
3 94 50 49 
3 72 94 49 
3 72 49 48 
3 73 72 48 
3 73 48 71 
3 74 73 71 
3 74 71 70 
3 95 74 70 
3 95 70 69 
3 75 95 69 
3 75 69 76 
3 76 69 68 
3 54 56 55 
3 6 74 95 
3 6 95 4 
3 4 95 75 
3 4 75 3 
